<svg width="100" height="100" viewBox="0 0 100 100" fill="none" xmlns="http://www.w3.org/2000/svg">
<path fill-rule="evenodd" clip-rule="evenodd" d="M43.3563 22.5722L23.3563 40.3499C21.2214 42.2476 20 44.9677 20 47.824V80.8334H16.6666C15.2859 80.8334 14.1666 81.9527 14.1666 83.3334C14.1666 84.7141 15.2859 85.8334 16.6666 85.8334H83.3333C84.714 85.8334 85.8333 84.7141 85.8333 83.3334C85.8333 81.9527 84.714 80.8334 83.3333 80.8334H80V47.824C80 44.9677 78.7785 42.2476 76.6436 40.3499L56.6436 22.5722C52.8547 19.2043 47.1452 19.2043 43.3563 22.5722ZM43.3333 37.5C41.9526 37.5 40.8333 38.6193 40.8333 40C40.8333 41.3808 41.9526 42.5 43.3333 42.5H56.6666C58.0473 42.5 59.1666 41.3808 59.1666 40C59.1666 38.6193 58.0473 37.5 56.6666 37.5H43.3333ZM56.84 47.5C59.8349 47.4999 62.3323 47.4999 64.3149 47.7664C66.4075 48.0478 68.2969 48.6667 69.8151 50.1849C71.3333 51.7031 71.9522 53.5925 72.2336 55.6851C72.5001 57.6677 72.5001 60.1651 72.5 63.1601L72.5 80.8334H67.5H32.5H27.5L27.5 63.16C27.4999 60.1651 27.4998 57.6677 27.7663 55.6851C28.0477 53.5925 28.6666 51.7031 30.1848 50.1849C31.703 48.6667 33.5924 48.0478 35.685 47.7664C37.6676 47.4999 40.165 47.4999 43.16 47.5H56.84Z" fill="#D7C22E"/>
<path opacity="0.5" d="M56.84 47.5001H43.16C40.1651 47.5 37.6677 47.5 35.6851 47.7665C33.5924 48.0479 31.7031 48.6668 30.1849 50.185C28.6666 51.7032 28.0477 53.5926 27.7664 55.6852C27.4998 57.6678 27.4999 60.1651 27.5 63.16L27.5 80.8333H72.5L72.5 63.1602C72.5001 60.1653 72.5002 57.6678 72.2336 55.6852C71.9523 53.5926 71.3334 51.7032 69.8152 50.185C68.2969 48.6668 66.4076 48.0479 64.3149 47.7665C62.3324 47.5 59.8349 47.5 56.84 47.5001Z" fill="#D7C22E"/>
<path d="M40 59.1666C38.6193 59.1666 37.5 60.2859 37.5 61.6666C37.5 63.0473 38.6193 64.1666 40 64.1666H60C61.3807 64.1666 62.5 63.0473 62.5 61.6666C62.5 60.2859 61.3807 59.1666 60 59.1666H40Z" fill="#D7C22E"/>
<path d="M40 69.1666C38.6193 69.1666 37.5 70.2859 37.5 71.6666C37.5 73.0473 38.6193 74.1666 40 74.1666H60C61.3807 74.1666 62.5 73.0473 62.5 71.6666C62.5 70.2859 61.3807 69.1666 60 69.1666H40Z" fill="#D7C22E"/>
</svg>
