<svg width="100" height="98" viewBox="0 0 100 98" fill="none" xmlns="http://www.w3.org/2000/svg">
<path d="M47.1667 16.1438C46.3553 16.3191 45.5584 16.5807 44.7902 16.9287C31.5111 22.9445 23 39.7667 23 54.1827C23 67.8809 33.6114 79.1339 47.1667 80.3773V16.1438Z" fill="#D7C22E"/>
<path d="M52.1667 80.3773C65.722 79.1339 76.3333 67.8809 76.3333 54.1827C76.3333 52.871 76.2629 51.5393 76.1248 50.1977L52.1667 73.4183V80.3773Z" fill="#D7C22E"/>
<path d="M70.5323 32.611C69.2358 30.2693 67.7408 28.0508 66.0666 26.0237L52.1667 39.4957V50.4113L70.5323 32.611Z" fill="#D7C22E"/>
<path d="M62.6948 22.4382C60.2439 20.1598 57.5128 18.274 54.5431 16.9287C53.7749 16.5807 52.978 16.3191 52.1667 16.1438V32.6423L62.6948 22.4382Z" fill="#D7C22E"/>
<path d="M72.7881 37.278L52.1667 57.2647V66.5649L74.6667 44.7575L75.1064 44.3313C74.5267 41.948 73.7487 39.5786 72.7881 37.278Z" fill="#D7C22E"/>
</svg>
