<svg width="54" height="65" viewBox="0 0 54 65" fill="none" xmlns="http://www.w3.org/2000/svg">
<path d="M24.1667 0.645485C23.3553 0.820771 22.5584 1.08242 21.7902 1.43042C8.51108 7.44615 0 24.2683 0 38.6844C0 52.3826 10.6114 63.6356 24.1667 64.879V0.645485Z" fill="#2A5F31"/>
<path d="M29.1667 64.879C42.722 63.6356 53.3333 52.3826 53.3333 38.6844C53.3333 37.3727 53.2629 36.041 53.1248 34.6994L29.1667 57.92V64.879Z" fill="#2A5F31"/>
<path d="M47.5323 17.1127C46.2358 14.771 44.7408 12.5525 43.0666 10.5254L29.1667 23.9974V34.913L47.5323 17.1127Z" fill="#2A5F31"/>
<path d="M39.6948 6.93992C37.2439 4.66149 34.5128 2.77573 31.5431 1.43042C30.7749 1.08242 29.978 0.820771 29.1667 0.645485V17.144L39.6948 6.93992Z" fill="#2A5F31"/>
<path d="M49.7881 21.7797L29.1667 41.7663V51.0666L51.6667 29.2592L52.1064 28.833C51.5267 26.4497 50.7487 24.0803 49.7881 21.7797Z" fill="#2A5F31"/>
</svg>
